<mxfile host="app.diagrams.net" modified="2023-06-30T04:59:03.217Z" agent="Mozilla/5.0 (Macintosh; Intel Mac OS X 10_15_7) AppleWebKit/537.36 (KHTML, like Gecko) Chrome/114.0.0.0 Safari/537.36" etag="UNLdxjumTZFdqA4wUAXR" version="21.5.2" type="github">
  <diagram name="Page-1" id="BiVLpRvNGxFJzWVWLXex">
    <mxGraphModel dx="2074" dy="1131" grid="1" gridSize="10" guides="1" tooltips="1" connect="1" arrows="1" fold="1" page="1" pageScale="1" pageWidth="2000" pageHeight="3000" math="0" shadow="0">
      <root>
        <mxCell id="0" />
        <mxCell id="1" parent="0" />
        <mxCell id="BH38Rvlt5r4y8mMV9AjR-1" value="&lt;font style=&quot;font-size: 36px;&quot;&gt;Object Oriented Programming (OOP)&lt;/font&gt;" style="text;strokeColor=none;align=center;fillColor=none;html=1;verticalAlign=middle;whiteSpace=wrap;rounded=0;" vertex="1" parent="1">
          <mxGeometry x="40" y="40" width="610" height="50" as="geometry" />
        </mxCell>
        <mxCell id="BH38Rvlt5r4y8mMV9AjR-2" value="&lt;font style=&quot;font-size: 18px;&quot;&gt;OOP is a programming paradigm that provides a set of principles and practices for designing and organising software systems. &lt;br&gt;The significance of object-oriented programming lies in its ability to promote code reusability, maintainability, modularity, and extensibility.&lt;/font&gt;" style="text;html=1;strokeColor=none;fillColor=none;align=left;verticalAlign=middle;whiteSpace=wrap;rounded=0;" vertex="1" parent="1">
          <mxGeometry x="40" y="100" width="1950" height="40" as="geometry" />
        </mxCell>
      </root>
    </mxGraphModel>
  </diagram>
</mxfile>
